<svg width="40" height="55" viewBox="0 0 40 55" fill="none" xmlns="http://www.w3.org/2000/svg">
<path fill-rule="evenodd" clip-rule="evenodd" d="M39.5122 12.2767V23.0803C39.5122 26.3213 38.2439 29.2678 36.0975 31.4285C33.9512 33.5892 31.0244 34.866 27.8049 34.866C25.0732 34.866 22.439 37.0267 22.439 39.7767V54.5088H17.561V39.7767C17.561 38.4017 16.878 37.2231 15.9024 36.3392C14.9268 35.4553 13.561 34.866 12.1951 34.866C10.5366 34.866 8.9756 34.4731 7.51218 33.8838C3.41462 32.0178 0.487793 27.8928 0.487793 23.0803V12.2767C0.487793 5.79454 5.75609 0.490967 12.1951 0.490967H27.8049C34.2439 0.490967 39.5122 5.79454 39.5122 12.2767Z" fill="#212529"/>
<path fill-rule="evenodd" clip-rule="evenodd" d="M32.4878 16.0088V19.6427C32.4878 21.7052 31.7073 23.6695 30.3415 25.1427C28.9756 26.6159 27.0244 27.4998 24.9756 27.4998H15.7073V22.5891H24.9756C25.6586 22.5891 26.3415 22.2945 26.8293 21.8034C27.3171 21.3123 27.6098 20.5266 27.6098 19.7409V16.107C27.6098 15.3213 27.3171 14.5355 26.8293 14.0445C26.3415 13.5534 25.6586 13.2588 24.9756 13.2588H12.3903V35.0623H12.1951C10.5366 35.0623 8.97562 34.6695 7.51221 34.0802V8.15161H24.9756C27.0244 8.15161 28.9756 9.03554 30.3415 10.5088C31.7073 11.982 32.4878 13.9463 32.4878 16.0088Z" fill="white"/>
</svg>
